<svg width="30" height="30" viewBox="0 0 30 30" fill="none" xmlns="http://www.w3.org/2000/svg">
<path d="M15.1771 3.31248H8.8125C6.53729 3.31248 5.39968 3.31248 4.53066 3.75527C3.76626 4.14475 3.14477 4.76624 2.75529 5.53064C2.3125 6.39966 2.3125 7.53727 2.3125 9.81248V21.1875C2.3125 23.4627 2.3125 24.6003 2.75529 25.4693C3.14477 26.2337 3.76626 26.8552 4.53066 27.2447C5.39968 27.6875 6.53729 27.6875 8.8125 27.6875H21.2708C22.5302 27.6875 23.1598 27.6875 23.6765 27.5491C25.0784 27.1734 26.1734 26.0784 26.5491 24.6764C26.6875 24.1598 26.6875 23.5302 26.6875 22.2708M23.9792 10.0833V1.95831M19.9167 6.02081H28.0417M12.4688 10.7604C12.4688 12.2562 11.2562 13.4687 9.76042 13.4687C8.26465 13.4687 7.05208 12.2562 7.05208 10.7604C7.05208 9.26463 8.26465 8.05206 9.76042 8.05206C11.2562 8.05206 12.4688 9.26463 12.4688 10.7604ZM18.549 15.3891L7.09426 25.8025C6.44997 26.3883 6.12782 26.6811 6.09933 26.9348C6.07463 27.1547 6.15895 27.3728 6.32515 27.5189C6.51689 27.6875 6.95226 27.6875 7.82299 27.6875H20.5341C22.483 27.6875 23.4575 27.6875 24.2228 27.3601C25.1836 26.9491 25.9491 26.1836 26.3601 25.2228C26.6875 24.4574 26.6875 23.483 26.6875 21.5341C26.6875 20.8784 26.6875 20.5505 26.6158 20.2452C26.5257 19.8615 26.353 19.502 26.1096 19.192C25.916 18.9453 25.6599 18.7404 25.1479 18.3308L21.36 15.3005C20.8475 14.8905 20.5913 14.6855 20.3091 14.6132C20.0604 14.5494 19.7987 14.5576 19.5545 14.637C19.2774 14.7269 19.0346 14.9477 18.549 15.3891Z" stroke="#475467" stroke-width="2.66667" stroke-linecap="round" stroke-linejoin="round"/>
</svg>
