<svg width="18" height="17" viewBox="0 0 18 17" fill="none" xmlns="http://www.w3.org/2000/svg">
<path d="M8.86458 2.43754H5.4375C4.21239 2.43754 3.59983 2.43754 3.1319 2.67596C2.72029 2.88569 2.38565 3.22033 2.17592 3.63194C1.9375 4.09987 1.9375 4.71243 1.9375 5.93754V12.0625C1.9375 13.2877 1.9375 13.9002 2.17592 14.3681C2.38565 14.7798 2.72029 15.1144 3.1319 15.3241C3.59983 15.5625 4.21239 15.5625 5.4375 15.5625H12.1458C12.8239 15.5625 13.163 15.5625 13.4412 15.488C14.1961 15.2857 14.7857 14.6961 14.988 13.9412C15.0625 13.663 15.0625 13.324 15.0625 12.6459M13.6042 6.08337V1.70837M11.4167 3.89587H15.7917M7.40625 6.44796C7.40625 7.25337 6.75333 7.90629 5.94792 7.90629C5.1425 7.90629 4.48958 7.25337 4.48958 6.44796C4.48958 5.64254 5.1425 4.98962 5.94792 4.98962C6.75333 4.98962 7.40625 5.64254 7.40625 6.44796ZM10.6802 8.94036L4.5123 14.5476C4.16537 14.863 3.99191 15.0207 3.97656 15.1573C3.96326 15.2757 4.00866 15.3931 4.09816 15.4718C4.2014 15.5625 4.43583 15.5625 4.90469 15.5625H11.7492C12.7985 15.5625 13.3232 15.5625 13.7354 15.3862C14.2527 15.1649 14.6649 14.7528 14.8862 14.2354C15.0625 13.8233 15.0625 13.2986 15.0625 12.2492C15.0625 11.8961 15.0625 11.7196 15.0239 11.5552C14.9754 11.3485 14.8824 11.155 14.7513 10.988C14.6471 10.8552 14.5092 10.7449 14.2335 10.5243L12.1938 8.89261C11.9179 8.67185 11.7799 8.56147 11.628 8.52252C11.4941 8.48818 11.3531 8.49263 11.2216 8.53534C11.0725 8.58379 10.9417 8.70265 10.6802 8.94036Z" stroke="#475467" stroke-width="2.66667" stroke-linecap="round" stroke-linejoin="round"/>
</svg>
